HIERARCHY
ROOT Hip
{
  OFFSET 0.0 0.0 0.0
  CHANNELS 6 Xposition Yposition Zposition Xrotation Yrotation Zrotation
  JOINT LowerSpine
  {
    OFFSET 0.0 0.061367 -0.03653
    CHANNELS 3 Xrotation Yrotation Zrotation
    JOINT MiddleSpine
    {
      OFFSET 0.0 0.056002 0.002633
      CHANNELS 3 Xrotation Yrotation Zrotation
      JOINT Chest
      {
        OFFSET 0.0 0.069296 -0.013882
        CHANNELS 3 Xrotation Yrotation Zrotation
        JOINT Neck
        {
          OFFSET 0.0 0.156156 -0.002923
          CHANNELS 3 Xrotation Yrotation Zrotation
          JOINT Head
          {
            OFFSET 0.0 0.088183 0.023986
            CHANNELS 3 Xrotation Yrotation Zrotation
            End Site
            {
              OFFSET 1e-06 0.123215 0.003678
            }
          }
        }
        JOINT LClavicle
        {
          OFFSET 0.014189 0.150698 0.046467
          CHANNELS 3 Xrotation Yrotation Zrotation
          JOINT LShoulder
          {
            OFFSET 0.082893 0.021616 -0.034976
            CHANNELS 3 Xrotation Yrotation Zrotation
            JOINT LForearm
            {
              OFFSET 0.195645 -0.000695 -0.001695
              CHANNELS 3 Xrotation Yrotation Zrotation
              JOINT LHand
              {
                OFFSET 0.163209 0.000474 -0.000977
                CHANNELS 3 Xrotation Yrotation Zrotation
                End Site
                {
                  OFFSET 0.0 0.006864 0.0
                }
              }
            }
          }
        }
        JOINT RClavicle
        {
          OFFSET -0.014189 0.150698 0.046467
          CHANNELS 3 Xrotation Yrotation Zrotation
          JOINT RShoulder
          {
            OFFSET -0.082908 0.021619 -0.034982
            CHANNELS 3 Xrotation Yrotation Zrotation
            JOINT RForearm
            {
              OFFSET -0.195645 -0.000695 -0.001695
              CHANNELS 3 Xrotation Yrotation Zrotation
              JOINT RHand
              {
                OFFSET -0.163209 0.000474 -0.000977
                CHANNELS 3 Xrotation Yrotation Zrotation
                End Site
                {
                  OFFSET 0.0 0.006864 0.0
                }
              }
            }
          }
        }
      }
    }
  }
  JOINT RThigh
  {
    OFFSET -0.072558 0.02774 -0.005953
    CHANNELS 3 Xrotation Yrotation Zrotation
    JOINT RShin
    {
      OFFSET -0.005253 -0.285537 0.0
      CHANNELS 3 Xrotation Yrotation Zrotation
      JOINT RFoot
      {
        OFFSET 0.0 -0.28038 0.0
        CHANNELS 3 Xrotation Yrotation Zrotation
        JOINT RToe
        {
          OFFSET 0.0 -0.030816 0.064441
          CHANNELS 3 Xrotation Yrotation Zrotation
          End Site
          {
            OFFSET 0.0 0.0 0.043231
          }
        }
      }
    }
  }
  JOINT LThigh
  {
    OFFSET 0.072557 0.027741 -0.005953
    CHANNELS 3 Xrotation Yrotation Zrotation
    JOINT LShin
    {
      OFFSET 0.005253 -0.285539 0.0
      CHANNELS 3 Xrotation Yrotation Zrotation
      JOINT LFoot
      {
        OFFSET 0.0 -0.28038 0.0
        CHANNELS 3 Xrotation Yrotation Zrotation
        JOINT LToe
        {
          OFFSET 0.0 -0.030816 0.064441
          CHANNELS 3 Xrotation Yrotation Zrotation
          End Site
          {
            OFFSET 0.0 0.0 0.043231
          }
        }
      }
    }
  }
}
MOTION
Frames: 12
Frame Time: 0.03333333333333333
0.023751 0.593371 -0.001113 -0.569846 -2.984264 -0.179635 -0.721706 -0.230231 -0.30394 0.721699 1.72383 -0.21387 0.063383 2.616365 -1.539238 -1.787245 0.080304 0.108644 0.009044 0.094981 0.015989 0.331694 -0.175647 -13.711162 20.74518 -28.063971 -52.733559 11.685504 -32.614414 -0.973272 0.144674 0.1638 -0.096 0.25192 -0.865724 12.600035 17.534975 31.051199 56.764679 4.813485 44.97057 -0.331911 0.203538 -0.31727 0.023883 -2.49548 -0.52398 0.543927 4.588336 -1.005966 0.395414 -2.258867 1.954731 0.878576 0.238271 0.630691 0.079109 3.638204 8.048494 5.33744 4.43259 8.622311 -3.624305 -2.410871 0.959213 0.4798 0.02811 -0.181029 -0.022049 
0.022062 0.587693 0.001102 -1.794495 -4.887293 0.978633 -0.458195 0.073878 0.52888 0.491841 1.152278 -0.222804 1.218974 3.063102 -3.249214 -0.658826 0.03521 -0.269279 0.018639 -0.067908 -0.017782 -0.343404 -0.224823 -14.625269 21.213558 -25.888981 -53.25753 10.875179 -28.252361 -0.403538 0.073316 0.085674 -0.061667 -0.236616 0.455615 12.368658 15.607032 27.23712 54.629932 1.845725 54.269428 2.644071 -0.066157 -0.14957 0.010552 -0.834169 1.315244 0.402727 5.665924 1.084839 -1.274347 -1.090807 1.71857 0.878872 0.014406 0.243322 0.089798 7.806666 10.72966 3.834042 2.435748 9.088602 -3.142393 -2.297096 1.038834 0.8051 0.053899 -0.146456 -0.04201 
0.015601 0.583429 -0.000894 -2.486547 -2.595479 1.286717 -0.254156 0.037573 0.403979 0.332547 0.859945 -0.247291 1.887957 2.627812 -3.618576 -0.397954 0.046479 -0.142234 0.010329 -0.1027 -0.033968 -0.381513 -0.395728 -14.32482 21.607254 -25.436392 -52.891026 11.161678 -29.150698 -0.386825 0.042405 0.0618 -0.031557 -0.425285 1.327804 12.266139 16.851294 28.099594 54.712646 0.648618 60.154972 6.197903 -0.064099 -0.147591 0.010143 -0.553206 0.942628 -0.295916 5.23495 1.00561 -0.865024 -1.159499 1.782037 0.838601 0.006449 0.144398 0.069027 7.219354 10.666403 4.255425 3.161437 8.87185 -3.068801 -2.209619 0.782216 0.625083 0.051552 -0.08937 -0.027192 
0.012078 0.581949 0.0009 -2.819029 -1.285675 1.422445 -0.138481 -0.015962 0.367425 0.282583 0.76347 -0.235286 2.248315 2.750867 -3.893411 -0.234726 0.074738 -0.047249 0.00891 -0.1289 -0.037902 -0.347273 -0.423358 -14.156448 21.420536 -25.382458 -53.027939 11.02084 -29.248291 -0.66658 0.037088 0.062358 -0.022654 -0.470212 1.585027 12.457709 16.181316 29.582571 55.640099 1.145282 58.451149 7.092775 -0.078583 -0.129484 0.006059 -0.672194 0.991281 -0.349098 5.591897 0.965215 -0.824636 -1.365326 1.647257 0.749656 0.002038 0.121302 0.065894 6.779095 11.06677 4.380219 3.625696 8.913134 -3.109751 -2.272586 0.671403 0.575484 0.05159 -0.070904 -0.022335 
0.010563 0.581145 0.000707 -3.052593 -1.288724 1.580708 0.031493 -0.06228 0.321178 0.237462 0.751522 -0.219181 2.328918 3.212628 -3.94863 -0.082338 0.103949 0.024015 0.006129 -0.140209 -0.037575 -0.31548 -0.392401 -13.811425 21.048866 -25.666552 -52.978344 11.032476 -29.282661 -0.838779 0.034853 0.061913 -0.019223 -0.506932 1.630527 12.611074 14.817287 31.786863 56.656906 3.392389 52.587769 6.483669 -0.090023 -0.113203 0.003851 -0.883516 1.164322 -0.37313 6.281178 0.922585 -0.674786 -1.564925 1.487538 0.682123 -0.008058 0.112713 0.063029 6.372545 11.800804 4.584551 3.924889 9.206196 -3.268987 -2.352723 0.561305 0.528687 0.048246 -0.06517 -0.022131 
0.00828 0.580595 -0.001119 -3.295017 -1.706753 1.685666 0.194551 -0.096941 0.288139 0.189579 0.759709 -0.210224 2.201389 3.643679 -3.877848 0.039406 0.126465 0.07537 0.004745 -0.146017 -0.036721 -0.320629 -0.399043 -13.416024 20.769461 -25.97823 -52.758446 11.084956 -29.402845 -0.870912 0.034526 0.061358 -0.019394 -0.567447 1.646139 12.71114 13.680167 33.579056 57.381191 5.369663 46.962353 5.723411 -0.103322 -0.099952 0.001816 -1.059404 1.258204 -0.373751 6.884341 0.860475 -0.521601 -1.657784 1.369101 0.63374 -0.020039 0.107452 0.063143 6.16313 12.460934 4.726576 3.985752 9.455766 -3.447028 -2.420735 0.450082 0.471634 0.046641 -0.065216 -0.024542 
0.006371 0.580128 -0.003491 -3.332962 -2.232887 1.707653 0.327577 -0.119838 0.245675 0.130133 0.756948 -0.219454 1.84394 3.875597 -3.723413 0.124284 0.138454 0.101182 0.003662 -0.139558 -0.033828 -0.33427 -0.388231 -13.025449 20.505667 -26.195738 -52.523369 11.083951 -29.560707 -0.890185 0.033938 0.060284 -0.018775 -0.612826 1.603995 12.772479 12.798511 35.013027 57.932613 6.902091 41.846828 5.0511 -0.104355 -0.089489 0.001473 -1.384645 1.199847 -0.34968 7.472417 0.74175 -0.333972 -1.701967 1.278415 0.591756 -0.025913 0.107743 0.062997 5.812172 12.97141 4.946363 4.129761 9.689015 -3.661664 -2.465549 0.341879 0.402783 0.042204 -0.061082 -0.024158 
0.005691 0.579943 -0.005687 -3.169792 -2.642799 1.702136 0.413142 -0.130968 0.204217 0.056916 0.740964 -0.223338 1.44127 4.032295 -3.506704 0.178276 0.140642 0.122355 0.00158 -0.125284 -0.030351 -0.356249 -0.368982 -12.749789 20.43232 -26.340204 -52.400379 11.173371 -29.764967 -0.94223 0.031486 0.055278 -0.016552 -0.639578 1.553655 12.836306 12.225027 36.095284 58.144951 7.725364 38.176411 4.604722 -0.096318 -0.079667 0.00249 -1.818979 1.087733 -0.430738 7.946478 0.598504 -0.12262 -1.73011 1.191319 0.56138 -0.023944 0.103708 0.059216 5.35912 13.333899 5.071693 4.21888 9.867587 -3.83271 -2.49122 0.260271 0.333321 0.035126 -0.053375 -0.021616 
0.005898 0.580112 -0.007727 -2.954219 -2.927518 1.703695 0.47065 -0.138064 0.166369 -0.016347 0.725269 -0.220163 1.058498 4.125294 -3.295171 0.21021 0.139905 0.135741 -0.000293 -0.109864 -0.027384 -0.377971 -0.348309 -12.545431 20.464228 -26.363043 -52.344322 11.314848 -30.118135 -0.984967 0.029008 0.050431 -0.014727 -0.658793 1.511345 12.899486 11.912665 36.852863 58.244785 8.246984 35.472569 4.282848 -0.085782 -0.074672 0.00369 -2.303799 0.97599 -0.581216 8.342616 0.450624 0.089061 -1.736878 1.118372 0.537836 -0.018869 0.100973 0.054617 4.8703 13.620736 5.128796 4.313851 10.02857 -3.988183 -2.494078 0.185696 0.268897 0.028341 -0.046064 -0.018749 
0.006624 0.580411 -0.009368 -2.731965 -3.057136 1.72375 0.507465 -0.141939 0.134142 -0.083941 0.711357 -0.22051 0.708337 4.173085 -3.118284 0.229424 0.135149 0.143085 -0.001778 -0.093533 -0.025004 -0.394066 -0.314233 -12.403877 20.520971 -26.242592 -52.370342 11.413851 -30.491758 -1.023107 0.0262 0.045376 -0.01255 -0.665551 1.473246 12.970134 11.696772 37.316696 58.372879 8.5021 33.415352 4.052816 -0.072484 -0.072901 0.005217 -2.78204 0.933394 -0.765737 8.67454 0.353641 0.262407 -1.743289 1.051001 0.517464 -0.011896 0.099618 0.049915 4.436759 13.813856 5.104028 4.384625 10.152512 -4.090104 -2.496971 0.12721 0.21227 0.021615 -0.037997 -0.015587 
0.007499 0.580661 -0.010606 -2.512902 -3.019477 1.755184 0.530934 -0.144494 0.106552 -0.140733 0.704255 -0.218737 0.443052 4.19013 -2.958156 0.250001 0.131162 0.144598 -0.002985 -0.080566 -0.023039 -0.406923 -0.28333 -12.306767 20.540731 -26.064148 -52.464718 11.445143 -30.817905 -1.036841 0.023379 0.04056 -0.009609 -0.670839 1.442763 13.029681 11.507532 37.500786 58.534012 8.55554 31.911238 3.894256 -0.060607 -0.072218 0.006737 -3.213043 0.911016 -0.926636 8.910062 0.281955 0.392426 -1.761682 0.993736 0.49794 -0.006148 0.098484 0.046228 4.070812 13.87001 5.020202 4.404099 10.206673 -4.123932 -2.503361 0.092734 0.171994 0.016111 -0.031047 -0.013085 
0.008443 0.580808 -0.011494 -2.354014 -2.87953 1.780622 0.547756 -0.146466 0.087317 -0.181619 0.700689 -0.20929 0.274545 4.198776 -2.810522 0.267002 0.12804 0.144339 -0.003843 -0.071452 -0.02172 -0.419087 -0.270538 -12.247078 20.532555 -25.865276 -52.605453 11.447722 -31.12018 -1.028064 0.021229 0.037177 -0.007267 -0.678343 1.428123 13.079094 11.344824 37.521027 58.693375 8.46438 30.814583 3.802114 -0.051725 -0.072211 0.007868 -3.548186 0.912706 -1.05257 9.053517 0.242311 0.48186 -1.796822 0.947147 0.479014 -0.001574 0.098561 0.043744 3.792287 13.851556 4.908116 4.390415 10.202592 -4.124894 -2.51554 0.074804 0.145952 0.012088 -0.026009 -0.011301 
